<svg width="45" height="45" viewBox="0 0 45 45" fill="none" xmlns="http://www.w3.org/2000/svg">
<path d="M41.9815 11.7565C39.9695 8.30914 37.2403 5.57989 33.7933 3.56809C30.3458 1.5562 26.5821 0.550507 22.4996 0.550507C18.4177 0.550507 14.6528 1.55651 11.206 3.56809C7.75863 5.57978 5.02959 8.30914 3.01759 11.7565C1.0059 15.2037 0 18.9681 0 23.0495C0 27.9523 1.4304 32.361 4.29191 36.2767C7.15312 40.1928 10.8494 42.9025 15.3804 44.4063C15.9078 44.5042 16.2982 44.4353 16.5521 44.2015C16.8061 43.9673 16.9329 43.6741 16.9329 43.3229C16.9329 43.2643 16.9279 42.7372 16.9181 41.741C16.9081 40.7447 16.9033 39.8756 16.9033 39.134L16.2295 39.2506C15.7999 39.3293 15.2579 39.3626 14.6035 39.3532C13.9495 39.3441 13.2705 39.2755 12.5675 39.1481C11.8642 39.0218 11.2101 38.7288 10.6046 38.2698C9.99935 37.8109 9.56972 37.2101 9.31575 36.4684L9.0228 35.7942C8.82753 35.3454 8.52011 34.8468 8.10012 34.3003C7.68013 33.7533 7.25543 33.3825 6.82579 33.1872L6.62067 33.0404C6.484 32.9428 6.35717 32.8251 6.23988 32.6885C6.1227 32.5519 6.03497 32.4153 5.97638 32.2784C5.91769 32.1414 5.96632 32.029 6.1228 31.9409C6.27929 31.8527 6.56208 31.81 6.97242 31.81L7.55813 31.8975C7.94877 31.9758 8.43196 32.2096 9.00833 32.6005C9.58439 32.991 10.0579 33.4987 10.4291 34.1234C10.8785 34.9244 11.42 35.5347 12.0551 35.9547C12.6896 36.3747 13.3294 36.5843 13.9738 36.5843C14.6182 36.5843 15.1747 36.5355 15.6437 36.4383C16.1121 36.3406 16.5516 36.1938 16.9619 35.9986C17.1377 34.6895 17.6163 33.6838 18.3972 32.9808C17.2841 32.8639 16.2834 32.6877 15.3944 32.4534C14.506 32.2189 13.588 31.8382 12.6409 31.3103C11.6933 30.7832 10.9072 30.1287 10.2824 29.3478C9.65745 28.5665 9.1446 27.5408 8.74452 26.2716C8.34423 25.0019 8.14404 23.5372 8.14404 21.8772C8.14404 19.5136 8.91567 17.5022 10.4586 15.8419C9.73584 14.0649 9.80408 12.0728 10.6636 9.86585C11.23 9.68987 12.0699 9.82193 13.1831 10.2612C14.2964 10.7007 15.1115 11.0772 15.6293 11.3893C16.1471 11.7014 16.5619 11.9658 16.8745 12.1802C18.6912 11.6726 20.566 11.4188 22.4994 11.4188C24.4328 11.4188 26.3081 11.6726 28.1249 12.1802L29.2381 11.4775C29.9994 11.0085 30.8984 10.5788 31.9329 10.1882C32.968 9.79772 33.7596 9.69018 34.3067 9.86616C35.1852 12.0732 35.2635 14.0652 34.5405 15.8422C36.0834 17.5025 36.8553 19.5144 36.8553 21.8775C36.8553 23.5375 36.6544 25.0068 36.2548 26.2863C35.8546 27.566 35.3373 28.5906 34.7028 29.3625C34.0675 30.1342 33.2764 30.7836 32.3293 31.3106C31.382 31.8381 30.4636 32.2188 29.5752 32.4533C28.6864 32.6879 27.6856 32.8642 26.5725 32.9814C27.5877 33.8599 28.0954 35.2467 28.0954 37.1411V43.3221C28.0954 43.6732 28.2175 43.9664 28.462 44.2007C28.7061 44.4345 29.0916 44.5034 29.619 44.4054C34.1506 42.9018 37.8469 40.1919 40.708 36.2759C43.5688 32.3602 44.9997 27.9515 44.9997 23.0487C44.9987 18.9678 43.9923 15.2037 41.9815 11.7565Z" fill="black"/>
</svg>
