<svg width="45" height="45" viewBox="0 0 45 45" fill="none" xmlns="http://www.w3.org/2000/svg">
<path d="M31.5778 14.4643H13.4221L22.5 22.2454L31.5778 14.4643Z" fill="black"/>
<path d="M22.5 24.1071C22.3081 24.1071 22.1226 24.0385 21.977 23.9133L12.0536 15.4075V30.5357H32.9464V15.4075L23.023 23.9133C22.8775 24.0385 22.6919 24.1071 22.5 24.1071Z" fill="black"/>
<path d="M22.5 0C10.0737 0 0 10.0737 0 22.5C0 34.9263 10.0737 45 22.5 45C34.9263 45 45 34.9263 45 22.5C44.9859 10.0796 34.9204 0.0141253 22.5 0ZM34.5536 31.3393C34.5536 31.7831 34.1938 32.1429 33.75 32.1429H11.25C10.8062 32.1429 10.4464 31.7831 10.4464 31.3393V13.6607C10.4464 13.2169 10.8062 12.8571 11.25 12.8571H33.75C34.1938 12.8571 34.5536 13.2169 34.5536 13.6607V31.3393Z" fill="black"/>
</svg>
